<svg viewBox="0 0 171 43" xmlns="http://www.w3.org/2000/svg" data-logo="logo">
        <g transform="translate(0, 1) rotate(0)" id="logogram" style="opacity: 1;"><path fill="#2E8B57" d="M40.1089 22.3041H32.9444C26.6863 22.3041 21.6131 27.3774 21.6131 33.6355V40.8C31.4903 40.0676 39.3765 32.1814 40.1089 22.3041Z"></path><path fill="#2E8B57" d="M18.6047 40.8V33.6355C18.6047 27.3774 13.5315 22.3041 7.27333 22.3041H0.108887C0.841249 32.1814 8.72746 40.0676 18.6047 40.8Z"></path><path fill="#2E8B57" d="M40.1089 19.2958C39.3765 9.41853 31.4903 1.53232 21.6131 0.799957V7.9644C21.6131 14.2226 26.6863 19.2958 32.9444 19.2958H40.1089Z"></path><path fill="#2E8B57" d="M18.6047 0.799957C8.72746 1.53232 0.841249 9.41853 0.108887 19.2958H7.27333C13.5315 19.2958 18.6047 14.2226 18.6047 7.9644V0.799957Z"></path><path fill="#CD934D" d="M13.6741 20.7997C16.4543 19.4106 18.7201 17.1449 20.1091 14.3646C21.4982 17.1449 23.764 19.4106 26.5442 20.7997C23.764 22.1887 21.4982 24.4545 20.1091 27.2347C18.7201 24.4545 16.4543 22.1887 13.6741 20.7997Z"></path></g>
        <g transform="translate(47, 8)" id="logotype" style="opacity: 1;"><path d="M20.30 26L14.12 26L6.17 0.80L10.52 0.80L17.16 21.91L23.90 0.80L28.24 0.80L20.30 26ZM37.36 26.52L37.36 26.52Q34.49 26.52 32.32 25.28Q30.15 24.04 28.93 21.84Q27.72 19.63 27.72 16.76L27.72 16.76Q27.72 13.66 28.91 11.38Q30.10 9.09 32.22 7.83Q34.33 6.57 37.12 6.57L37.12 6.57Q40.05 6.57 42.11 7.95Q44.17 9.32 45.16 11.82Q46.16 14.33 45.92 17.72L45.92 17.72L41.73 17.72L41.73 16.18Q41.72 13.10 40.65 11.68Q39.58 10.27 37.29 10.27L37.29 10.27Q34.70 10.27 33.44 11.87Q32.18 13.47 32.18 16.55L32.18 16.55Q32.18 19.42 33.44 20.99Q34.70 22.57 37.12 22.57L37.12 22.57Q38.67 22.57 39.80 21.88Q40.93 21.19 41.54 19.88L41.54 19.88L45.71 21.13Q44.62 23.69 42.36 25.11Q40.09 26.52 37.36 26.52ZM43.85 17.72L30.85 17.72L30.85 14.54L43.85 14.54L43.85 17.72ZM54.07 26L49.84 26L49.84 7.10L53.57 7.10L53.57 11.70L53.11 11.11Q53.46 10.16 54.05 9.38Q54.63 8.60 55.46 8.10L55.46 8.10Q56.16 7.63 57.00 7.35Q57.85 7.08 58.75 7.02Q59.64 6.96 60.48 7.10L60.48 7.10L60.48 11.04Q59.64 10.79 58.54 10.88Q57.45 10.97 56.58 11.49L56.58 11.49Q55.70 11.96 55.15 12.70Q54.60 13.43 54.34 14.37Q54.07 15.31 54.07 16.39L54.07 16.39L54.07 26ZM71.03 26.52L71.03 26.52Q68.42 26.52 66.48 25.21Q64.54 23.90 63.47 21.64Q62.40 19.38 62.40 16.55L62.40 16.55Q62.40 13.68 63.48 11.43Q64.56 9.18 66.53 7.88Q68.51 6.57 71.19 6.57L71.19 6.57Q73.88 6.57 75.71 7.88Q77.54 9.18 78.49 11.44Q79.43 13.70 79.43 16.55L79.43 16.55Q79.43 19.37 78.49 21.63Q77.54 23.90 75.67 25.21Q73.80 26.52 71.03 26.52ZM71.68 22.75L71.68 22.75Q73.38 22.75 74.42 21.97Q75.46 21.19 75.94 19.79Q76.42 18.39 76.42 16.55L76.42 16.55Q76.42 14.69 75.94 13.30Q75.46 11.91 74.44 11.13Q73.43 10.35 71.82 10.35L71.82 10.35Q70.12 10.35 69.02 11.19Q67.92 12.02 67.39 13.43Q66.87 14.83 66.87 16.55L66.87 16.55Q66.87 18.28 67.38 19.69Q67.90 21.10 68.97 21.92Q70.03 22.75 71.68 22.75ZM80.15 26L76.42 26L76.42 12.73L75.90 12.73L75.90 0.80L80.15 0.80L80.15 26ZM90.33 26.52L90.33 26.52Q88.29 26.52 86.87 25.75Q85.45 24.97 84.72 23.67Q84.00 22.38 84.00 20.82L84.00 20.82Q84.00 19.45 84.45 18.36Q84.91 17.27 85.85 16.47Q86.80 15.67 88.30 15.17L88.30 15.17Q89.44 14.80 90.97 14.50Q92.50 14.20 94.30 13.95Q96.09 13.70 98.05 13.40L98.05 13.40L96.55 14.26Q96.56 12.30 95.67 11.37Q94.78 10.44 92.66 10.44L92.66 10.44Q91.38 10.44 90.19 11.04Q89.00 11.63 88.53 13.08L88.53 13.08L84.68 11.88Q85.38 9.48 87.35 8.03Q89.32 6.57 92.66 6.57L92.66 6.57Q95.18 6.57 97.10 7.40Q99.01 8.22 99.94 10.09L99.94 10.09Q100.45 11.09 100.55 12.13Q100.66 13.17 100.66 14.40L100.66 14.40L100.66 26L96.97 26L96.97 21.91L97.58 22.57Q96.30 24.62 94.59 25.57Q92.89 26.52 90.33 26.52ZM91.17 23.16L91.17 23.16Q92.61 23.16 93.62 22.66Q94.64 22.15 95.24 21.41Q95.85 20.68 96.06 20.03L96.06 20.03Q96.39 19.23 96.43 18.19Q96.48 17.14 96.48 16.50L96.48 16.50L97.77 16.88Q95.86 17.18 94.50 17.41Q93.13 17.63 92.15 17.84Q91.17 18.04 90.42 18.28L90.42 18.28Q89.69 18.54 89.18 18.89Q88.67 19.24 88.40 19.70Q88.13 20.16 88.13 20.77L88.13 20.77Q88.13 21.47 88.48 22.00Q88.83 22.54 89.50 22.85Q90.18 23.16 91.17 23.16ZM122.55 26L118.28 26L118.28 16.90Q118.28 16.01 118.16 14.92Q118.04 13.84 117.59 12.83Q117.14 11.82 116.26 11.18Q115.38 10.53 113.87 10.53L113.87 10.53Q113.07 10.53 112.28 10.79Q111.49 11.05 110.85 11.69Q110.21 12.33 109.83 13.44Q109.44 14.55 109.44 16.29L109.44 16.29L106.94 15.22Q106.94 12.80 107.88 10.84Q108.81 8.88 110.63 7.72Q112.45 6.56 115.11 6.56L115.11 6.56Q117.21 6.56 118.58 7.26Q119.94 7.96 120.75 9.04Q121.55 10.13 121.94 11.35Q122.32 12.58 122.44 13.67Q122.55 14.76 122.55 15.45L122.55 15.45L122.55 26ZM109.44 26L105.17 26L105.17 7.10L108.94 7.10L108.94 12.96L109.44 12.96L109.44 26Z" fill="#0e0e0e"></path></g>
        
      </svg>